<svg id="Capa_1" enable-background="new 0 0 512 512" height="512" viewBox="0 0 512 512" width="512" xmlns="http://www.w3.org/2000/svg"><g><g><g><g><g><g><circle cx="256" cy="256" fill="#7584f2" r="256"/></g></g></g></g></g><path d="m512 256c0-10.243-.602-20.346-1.771-30.275l-130.704-130.704-326.569 112.725 165.275 165.275-85.756 55.733 79.469 79.469c14.313 2.483 29.033 3.777 44.056 3.777 141.385 0 256-114.615 256-256z" fill="#4a5bd3"/><g><path d="m132.475 95.021-79.519 112.725 94.785 49.95z" fill="#e9edf5"/></g><g><path d="m379.525 95.021 79.519 112.725-94.785 49.95z" fill="#cdd2e1"/></g><g><path d="m379.525 428.754h-247.05v-333.733l69.111-17.917h108.828l69.111 17.917z" fill="#fff"/></g><g><path d="m379.525 95.021-69.111-17.917h-54.293v351.65h123.404z" fill="#e9edf5"/></g><g><path d="m257.888 145.219h-3.775c-29.009 0-52.526-23.517-52.526-52.526v-15.589h108.827v15.589c0 29.009-23.517 52.526-52.526 52.526z" fill="#e9edf5"/></g><g><path d="m256.121 77.104v68.115h1.767c29.009 0 52.526-23.517 52.526-52.526v-15.589z" fill="#cdd2e1"/></g><path d="m305.198 220.474h-31.198v-31.198h-36v31.198h-31.198v36h31.198v31.198h36v-31.198h31.198z" fill="#ff583e"/><path d="m305.198 220.474h-31.198v-31.198h-17.879v98.396h17.879v-31.198h31.198z" fill="#f92814"/></g></svg>