<?xml version="1.0" encoding="iso-8859-1"?>
<!-- Generator: Adobe Illustrator 19.0.0, SVG Export Plug-In . SVG Version: 6.00 Build 0)  -->
<svg version="1.1" id="Capa_1" xmlns="http://www.w3.org/2000/svg" xmlns:xlink="http://www.w3.org/1999/xlink" x="0px" y="0px"
	 viewBox="0 0 512 512" style="enable-background:new 0 0 512 512;" xml:space="preserve">
<circle style="fill:#FFB74F;" cx="256" cy="256" r="256"/>
<path style="fill:#E67500;" d="M512,256c0-16.488-1.578-32.605-4.556-48.226l-89.046-89.047L255.999,49.24L93.601,118.728v156.146
	c0,24.272,2.879,50.808,23.762,80.368c5.845,8.273,12.906,16.468,21.199,24.614l131.767,131.738C405.046,504.16,512,392.576,512,256
	z"/>
<path style="fill:#6D76E7;" d="M255.999,67.73l-145.398,62.215c0,0,0,104.134,0,144.929c0,40.796,6.591,93.075,145.398,162.856
	c138.807-69.781,145.398-122.061,145.398-162.856s0-144.929,0-144.929L255.999,67.73z"/>
<path style="fill:#1C2EDE;" d="M401.399,129.94c0,0,0,104.14,0,144.93c0,40.8-6.59,93.08-145.4,162.86v-370L401.399,129.94z"/>
<polygon style="fill:#00EFD1;" points="239.003,322.438 166.972,251.649 195.009,223.12 238.979,266.332 316.96,189.562 
	345.022,218.067 "/>
<polygon style="fill:#00AD95;" points="345.017,218.064 255.997,305.704 255.997,249.574 316.957,189.564 "/>
<path style="fill:#FFFFFF;" d="M255.999,456.758l-7.636-3.838c-64.691-32.522-107.541-64.473-131-97.678
	c-20.883-29.56-23.762-56.095-23.762-80.368V118.728L255.999,49.24l162.398,69.488v156.146c0,24.272-2.879,50.808-23.762,80.368
	c-23.459,33.205-66.31,65.156-131.001,97.678L255.999,456.758z M127.601,141.161v133.712c0,30.969-0.011,77.463,128.398,143.777
	c128.41-66.314,128.398-112.808,128.398-143.777V141.161l-128.398-54.94L127.601,141.161z"/>
<path style="fill:#FFEC97;" d="M255.999,49.24v36.98l128.4,54.94v133.71c0,30.97,0.01,77.47-128.4,143.78v38.11l7.64-3.84
	c64.69-32.52,107.54-64.47,131-97.68c20.88-29.56,23.76-56.09,23.76-80.37V118.73L255.999,49.24z"/>
<g>
</g>
<g>
</g>
<g>
</g>
<g>
</g>
<g>
</g>
<g>
</g>
<g>
</g>
<g>
</g>
<g>
</g>
<g>
</g>
<g>
</g>
<g>
</g>
<g>
</g>
<g>
</g>
<g>
</g>
</svg>
