<svg id="Layer_1" enable-background="new 0 0 512 512" height="512" viewBox="0 0 512 512" width="512" xmlns="http://www.w3.org/2000/svg"><g><g><g><g id="XMLID_1357_"><g id="XMLID_1358_"><g id="XMLID_1359_"><g id="XMLID_1360_"><g id="XMLID_1361_"><g id="XMLID_1362_"><g id="XMLID_1363_"><g id="XMLID_1364_"><g id="XMLID_1365_"><g id="XMLID_1366_"><g id="XMLID_1430_"><g id="XMLID_1431_"><g id="XMLID_1432_"><g id="XMLID_1433_"><g id="XMLID_1434_"><ellipse cx="256" cy="256" fill="#7343dd" rx="256" ry="256" transform="matrix(.707 -.707 .707 .707 -106.039 256)"/></g></g></g></g></g></g></g></g></g></g></g></g></g></g></g></g></g><path d="m100.382 383.361 127.763 127.124c9.285 1.005 18.712 1.53 28.267 1.515 141.384-.227 255.815-115.027 255.588-256.411-.009-5.483-.21-10.92-.559-16.316l-138.911-138.911z" fill="#552cb7"/><g><g><path d="m95.011 107.979h279.938v247.058h-279.938z" fill="#96928f"/><path d="m234.98 107.98h139.97v247.06h-139.97z" fill="#726e6b"/><ellipse cx="234.98" cy="107.979" fill="#96928f" rx="139.969" ry="41.019"/><g><g><g><path d="m374.95 107.98c0 22.65-62.67 41.02-139.97 41.02v-82.04c77.3 0 139.97 18.36 139.97 41.02z" fill="#726e6b"/></g></g></g><g><g><g><path d="m234.98 148.998c-77.303 0-139.969-18.365-139.969-41.019v65.981c0 22.655 62.666 41.02 139.969 41.02s139.969-18.365 139.969-41.02v-65.981c0 22.654-62.666 41.019-139.969 41.019z" fill="#d8d5d2"/></g></g></g><g><g><g><path d="m374.95 107.98v65.98c0 22.65-62.67 41.02-139.97 41.02v-65.98c77.3 0 139.97-18.37 139.97-41.02z" fill="#b7b4b2"/></g></g></g><g><g><g><path d="m234.98 248.053c-77.303 0-139.969-18.365-139.969-41.019v65.981c0 22.654 62.666 41.02 139.969 41.02s139.969-18.365 139.969-41.02v-65.981c0 22.654-62.666 41.019-139.969 41.019z" fill="#d8d5d2"/></g></g></g><g><g><g><path d="m374.95 207.03v65.98c0 22.66-62.67 41.02-139.97 41.02v-65.98c77.3 0 139.97-18.36 139.97-41.02z" fill="#b7b4b2"/></g></g></g><g><g><g><path d="m234.98 347.108c-77.303 0-139.969-18.365-139.969-41.019v65.981c0 22.654 62.666 41.019 139.969 41.019s139.969-18.365 139.969-41.019v-65.981c0 22.654-62.666 41.019-139.969 41.019z" fill="#d8d5d2"/></g></g></g><g><g><g><path d="m374.95 306.09v65.98c0 22.65-62.67 41.02-139.97 41.02v-65.98c77.3 0 139.97-18.37 139.97-41.02z" fill="#b7b4b2"/></g></g></g></g><circle cx="374.949" cy="338.098" fill="#ffc136" r="77.564"/><path d="m452.51 338.1c0 42.84-34.72 77.56-77.56 77.56v-155.13c42.84 0 77.56 34.73 77.56 77.57z" fill="#f4a300"/><path d="m414.942 323.098h-24.993v-24.993h-30v24.993h-24.992v30h24.992v24.992h30v-24.992h24.993z" fill="#f4f2ef"/><path d="m414.94 323.1v30h-24.99v24.99h-15v-79.98h15v24.99z" fill="#e5e1dc"/></g></g></svg>