<svg xmlns="http://www.w3.org/2000/svg" width="53.771" height="53.255" viewBox="0 0 53.771 53.255"><defs><style>.a{fill:#ffa200;}.b{fill:#ffc400;}.c{fill:#317c34;}.d{fill:#8bc34a;}</style></defs><g transform="translate(0 0)"><path class="a" d="M235.813,43.209a2.713,2.713,0,0,0,2.792-2.712V30.356a2.713,2.713,0,0,0-5.426,0V40.5A2.7,2.7,0,0,0,235.813,43.209Z" transform="translate(-209.007 -27.643)"/><path class="b" d="M98.806,65.971a23.284,23.284,0,0,0-5.618-8.082v4.054a3.86,3.86,0,0,1-3.813,3.9c-.038,0-.077,0-.115,0a3.844,3.844,0,0,1-3.7-3.9v-6.8A3.946,3.946,0,0,1,86,53.329a23.188,23.188,0,0,0-4.807-1.345v9.96a3.86,3.86,0,0,1-3.813,3.9c-.038,0-.077,0-.115,0a3.844,3.844,0,0,1-3.7-3.9V51.986a23.185,23.185,0,0,0-4.8,1.349,3.945,3.945,0,0,1,.439,1.813v6.8a3.86,3.86,0,0,1-3.813,3.9c-.038,0-.077,0-.115,0a3.844,3.844,0,0,1-3.7-3.9V57.907a23.333,23.333,0,0,0-5.61,8.079,28.777,28.777,0,0,0-2.08,10.182h47.01a28.722,28.722,0,0,0-2.073-10.2Z" transform="translate(-50.488 -49.09)"/><path class="a" d="M132.633,68a2.713,2.713,0,0,0,2.792-2.712v-6.8a2.713,2.713,0,1,0-5.426,0v6.8A2.7,2.7,0,0,0,132.633,68Z" transform="translate(-117.832 -52.434)"/><path class="a" d="M76.612,265.408H28.023a2.642,2.642,0,0,0,0,5.283H76.612a2.642,2.642,0,0,0,0-5.283Z" transform="translate(-25.432 -237.742)"/><path class="a" d="M338.992,68a2.713,2.713,0,0,0,2.792-2.712v-6.8a2.713,2.713,0,1,0-5.426,0v6.8A2.7,2.7,0,0,0,338.992,68Z" transform="translate(-300.181 -52.434)"/><path class="c" d="M56,390.643h2.14v7.609H56Z" transform="translate(-52.366 -348.529)"/><path class="d" d="M121.526,356.928H86.3a2.331,2.331,0,0,0-2.3,2.358v10.434a2.331,2.331,0,0,0,2.3,2.358H99.191l.789-1.751a4.2,4.2,0,0,1,7.67-.089l.879,1.84h12.924a2.334,2.334,0,0,0,2.3-2.341l.074-10.434a2.39,2.39,0,0,0-.667-1.678A2.268,2.268,0,0,0,121.526,356.928Zm-34.2,3.084h-.817a.595.595,0,0,1,0-1.189h.817a.595.595,0,0,1,0,1.189Zm10.736,0h-8.7a.595.595,0,0,1,0-1.189h8.7a.595.595,0,0,1,0,1.189Z" transform="translate(-77.037 -318.822)"/><path class="c" d="M437.253,398.252h2.229v-7.609h-2.173Z" transform="translate(-389.345 -348.529)"/></g></svg>