<svg xmlns="http://www.w3.org/2000/svg" width="53.771" height="53.771" viewBox="0 0 53.771 53.771"><defs><style>.a{fill:#8bc34a;}.b{fill:#79aa40;}.c{fill:#388e3c;}.d{fill:#317c34;}.e{fill:#ffcc80;}.f{fill:#607d8b;}.g{fill:#deb26f;}.h{fill:#546d79;}</style></defs><g transform="translate(31.366)"><path class="a" d="M19.8,11.2H15.68A1.681,1.681,0,0,1,14,9.522V7.644A7.654,7.654,0,0,1,21.644,0h4.118a1.681,1.681,0,0,1,1.68,1.68V3.558A7.654,7.654,0,0,1,19.8,11.2Z" transform="translate(-14)"/></g><g transform="translate(31.366)"><path class="b" d="M25.762,0H21.644A7.654,7.654,0,0,0,14,7.644V9.522a1.669,1.669,0,0,0,.332,1C17.293,6.345,22.948,1.931,27.138.715A1.679,1.679,0,0,0,25.762,0Z" transform="translate(-14)"/></g><g transform="translate(31.366 8.402)"><path class="c" d="M15.68,22.794A1.681,1.681,0,0,1,14,21.114V5.43a1.68,1.68,0,1,1,3.361,0V21.114A1.681,1.681,0,0,1,15.68,22.794Z" transform="translate(-14 -3.75)"/></g><g transform="translate(31.366 8.402)"><path class="d" d="M15.68,15.512H14v5.6a1.681,1.681,0,0,0,1.68,1.68Zm0-11.762a1.684,1.684,0,0,0-1.5.914A9.975,9.975,0,0,1,15.68,6.4Z" transform="translate(-14 -3.75)"/></g><g transform="translate(8.872 31.277)"><path class="e" d="M48.859,25.252c0,.986-3.473,3.271-7.954,5.534-5.668,2.868-12.927,5.668-16.691,5.668a13.331,13.331,0,0,1-1.972-.157H22.22c-5.175-.672-13.8-3.5-18.26-5.512l4.5-15.862a4.872,4.872,0,0,0,.157-.963,32.818,32.818,0,0,1,6.52,1.1A24.91,24.91,0,0,1,20.9,17.41c3.383.515,10.037,1.12,10.037,5.041,0,1.613-.986,2.8-4.481,2.8a69.588,69.588,0,0,1-9.522-1.12s5.041,3.428,9.522,3.428c4.19,0,12.255-4.929,16.96-5.579a4.975,4.975,0,0,1,.963-.09c2.24,0,4.481,1.12,4.481,3.361Z" transform="translate(-3.96 -13.96)"/></g><g transform="translate(0 26.885)"><path class="f" d="M7.842,34.4H1.68A1.681,1.681,0,0,1,0,32.724V13.68A1.681,1.681,0,0,1,1.68,12c7.853,0,11.511,2.727,11.662,2.841a1.683,1.683,0,0,1,.6,1.777L9.464,33.163A1.681,1.681,0,0,1,7.842,34.4Z" transform="translate(0 -12)"/></g><g transform="translate(9.363 39.208)"><path class="g" d="M44.106,17.5a4.975,4.975,0,0,0-.963.09c-4.7.65-12.771,5.579-16.96,5.579-4.481,0-9.522-3.428-9.522-3.428L6.491,18.177,4.28,26.341a1.664,1.664,0,0,1-.1.273c4.577,2,12.777,4.644,17.767,5.292h.022a13.382,13.382,0,0,0,1.974.157c3.764,0,11.023-2.8,16.691-5.668,4.481-2.263,7.954-4.548,7.954-5.534,0-2.24-2.24-3.361-4.481-3.361Z" transform="translate(-4.179 -17.5)"/></g><g transform="translate(0 38.088)"><path class="h" d="M0,17v9.522A1.681,1.681,0,0,0,1.68,28.2H7.842a1.682,1.682,0,0,0,1.524-.97,1.8,1.8,0,0,0,.1-.273l2.211-8.164Z" transform="translate(0 -17)"/></g><g transform="translate(19.044 6.721)"><path class="a" d="M22.5,16.443H18.32A9.832,9.832,0,0,1,8.5,6.623V4.68A1.681,1.681,0,0,1,10.18,3h4.183a9.832,9.832,0,0,1,9.82,9.82v1.942A1.681,1.681,0,0,1,22.5,16.443Z" transform="translate(-8.5 -3)"/></g><g transform="translate(19.044 7.45)"><path class="b" d="M8.8,3.325a1.676,1.676,0,0,0-.3.952V6.22a9.832,9.832,0,0,0,9.82,9.82H22.5a1.671,1.671,0,0,0,1.1-.406C20.91,10.783,14.529,5.422,8.8,3.325Z" transform="translate(-8.5 -3.325)"/></g></svg>