<svg xmlns="http://www.w3.org/2000/svg" width="47.289" height="53.566" viewBox="0 0 47.289 53.566"><defs><style>.a{fill:#93b7c0;}.b{fill:#acd5df;}.c{fill:#c4f3ff;}.d{fill:#fff;}.e{fill:#3b88f5;}.f{fill:#28abfa;}</style></defs><g transform="translate(0)"><path class="a" d="M130.647,0,116,26.783l14.647,26.783.523-.185a34.7,34.7,0,0,0,23.121-32.708V6.724Z" transform="translate(-107.003)"/><path class="b" d="M30,6.724v13.95A34.7,34.7,0,0,0,53.121,53.381l.523.185V0Z" transform="translate(-30)"/><path class="c" d="M174.792,78.715q.082-1.087.083-2.188V67.317l-17.367-4.938L146,78.715Z" transform="translate(-133.864 -55.853)"/><path class="d" d="M107.367,62.379,90,67.318v9.209q0,1.1.083,2.188h17.284Z" transform="translate(-83.723 -55.853)"/><path class="e" d="M166.462,171.542,156,186l10.462,14.459.645-.29a28.479,28.479,0,0,0,11.394-9.335,28.152,28.152,0,0,0,5.245-14.378Z" transform="translate(-142.818 -153.595)"/><path class="f" d="M90.793,176.457a28.151,28.151,0,0,0,5.246,14.378,28.479,28.479,0,0,0,11.394,9.335l.645.29V171.542Z" transform="translate(-84.433 -153.595)"/></g></svg>