<svg version="1.1" id="Layer_1" xmlns="http://www.w3.org/2000/svg" xmlns:xlink="http://www.w3.org/1999/xlink" x="0" y="0" viewBox="0 0 217.75 231.7" xml:space="preserve"><style>.st1{fill:#21a2d6}.st2{fill:#9ad9f7}.st6{fill:#b9e2f8}.st7{enable-background:new}.st9{fill:#2b6e99}.st10{fill:#2e709e}.st11{fill:#2f74a1}.st12{fill:#2f77a5}.st13{fill:#317aaa}.st14{fill:#327dae}.st15{fill:#3380b2}.st16{fill:#3584b7}.st17{fill:#3687bc}.st18{fill:#368ac0}.st19{fill:#378dc4}.st20{fill:#3990c7}.st21{fill:#3a93cc}.st22{fill:#3b95d2}.st23{fill:#3e98d4}.st24{fill:#55a4d7}.st25{fill:#5ea9d9}.st26{fill:#64acdc}.st27{fill:#6bb2df}.st28{fill:#71b5e0}.st29{fill:#296b95}.st30{fill:#286891}.st31{fill:#28658d}.st32{fill:#286289}.st33{fill:#275f83}.st34{fill:#245c80}.st35{fill:#24587b}.st36{fill:#225678}.st37{fill:#215373}.st38{fill:#20506f}.st41{fill:#b9b9b9}.st42{fill:#b4b4b4}.st43{fill:#aeaeae}.st44{fill:#a9a8a8}.st45{fill:#a3a3a2}.st46{fill:#9e9e9e}.st47{fill:#989898}.st48{fill:#959494}.st49{fill:#908f8f}.st50{fill:#8b8a8b}.st51{fill:#858585}.st53{fill:#bdbdbd}.st54{fill:#c2c2c2}.st55{fill:#c8c7c6}.st56{fill:#ccc}.st57{fill:#3584b8}.st58{fill:#3075a5}.st59{fill:#dcdcdc}.st60{fill:#c6c5c5}.st64{fill:#d2d2d2}.st65{fill:#d7d6d6}.st66{fill:#dcdbdb}.st67{fill:#e0e1e0}.st68{fill:#e6e6e5}.st69{fill:#ebebeb}.st70{fill:#f1f0f0}.st71{fill:#f5f6f6}.st72{fill:#fafbfc}.st73{fill:#fff}.st75{fill:none;stroke:#465c66;stroke-width:.5;stroke-miterlimit:10}.st77{fill:#fdd6c4}.st78{fill:#15405d}.st82{fill:#76934d}.st82,.st83,.st84{fill-rule:evenodd;clip-rule:evenodd}.st83{fill:#cae3b5}.st84{fill:#dfedd1}.st85{fill:#93b563}.st85,.st87,.st88{fill-rule:evenodd;clip-rule:evenodd}.st87{fill:none;stroke:#465c66;stroke-width:.5;stroke-miterlimit:10}.st88{opacity:.4;fill:#76934d}</style><path d="M217.75 169.84c0 29.36-45.78 53.17-102.25 53.17s-102.25-23.8-102.25-53.17c0-29.36 45.78-53.17 102.25-53.17s102.25 23.81 102.25 53.17z" opacity=".3" fill="#9ad9f7"/><path class="st1" d="M208.86 63.11L101.5 1.6C99.57.5 97.07-.03 94.9.47c-3.04.7-5.9 1.66-5.89 4.32l-.16 99.79 9.44 5.58C95.2 111.67.96 157.53.8 157.65l-.23 3.85c0 1.66.88 3.19 2.32 4.02 16.04 9.29 110.01 63.62 110.01 63.62a9.964 9.964 0 009.99 0l89.32-51.63a3.02 3.02 0 001.51-2.61l.16-103.16a9.962 9.962 0 00-5.02-8.63z"/><path class="st2" d="M210.32 174.94L88.35 105.35 88.1 5.78c-.01-2.88 3.1-4.68 5.6-3.25l112.47 64.43c2.45 1.4 3.96 4 3.97 6.83l.18 101.15z"/><path d="M213.09 215.13c0 9.15-14.27 16.57-31.87 16.57s-31.87-7.42-31.87-16.57 14.27-16.57 31.87-16.57 31.87 7.42 31.87 16.57z" opacity=".2" fill="#9ad9f7"/><path fill="#dae7ed" d="M93.12 8.31L204.78 72.4l.23 93.73L93.12 101.9z"/><path d="M210.25 174.93l-121.9-70.3-86.21 49.82c-2.49 1.44-2.49 5.03 0 6.47l112.22 64.86a7.906 7.906 0 007.9 0l87.99-50.85z" fill="#cce6f8"/><path class="st6" d="M47.54 178.59c.04-.03.08-.06.13-.09L69 166.1c.7-.41 1.93-.36 2.75.12l36.29 20.95c.14.08.25.17.35.26.54-.41.41-1.06-.35-1.5l-36.29-20.95c-.82-.47-2.05-.52-2.75-.12l-21.34 12.4c-.57.34-.6.89-.12 1.33z"/><path class="st2" d="M108.04 187.17c.82.47.91 1.19.21 1.6l-21.34 12.4c-.69.4-1.93.35-2.75-.12L47.87 180.1c-.82-.47-.92-1.18-.22-1.59L69 166.1c.7-.41 1.93-.35 2.75.12l36.29 20.95zm80.39-10.36c.79.46.84 1.18.1 1.61l-37.52 21.81c-.74.43-1.99.4-2.78-.05L45.65 140.95c-.79-.46-.84-1.18-.1-1.61l37.52-21.8c.74-.43 1.99-.41 2.78.05l102.58 59.22z"/><path class="st6" d="M45.56 139.42c.03-.02.05-.04.08-.06l37.53-21.81c.74-.43 1.99-.4 2.78.06l102.58 59.22c.07.04.13.08.19.13.64-.44.57-1.11-.19-1.55L85.95 116.18c-.79-.46-2.04-.48-2.78-.05l-37.53 21.81c-.67.39-.68 1.02-.08 1.48z"/><g class="st7"><defs><path id="SVGID_1_" class="st7" d="M187.23 139.2l-1.82 1.06c-.17.1-.4.08-.65-.06-.51-.3-.92-1.01-.92-1.59l1.83-1.06c0 .58.4 1.29.92 1.59.25.14.48.16.64.06z"/></defs><clipPath id="SVGID_2_"><use xlink:href="#SVGID_1_" overflow="visible"/></clipPath><g clip-path="url(#SVGID_2_)"><path class="st9" d="M183.84 138.61l1.83-1.06v.04l-1.83 1.06v-.04"/><path class="st10" d="M183.84 138.65l1.83-1.06v.04l-1.83 1.06c.01-.01 0-.02 0-.04"/><path class="st11" d="M183.85 138.69l1.83-1.06v.04l-1.83 1.06v-.04"/><path class="st12" d="M183.85 138.74l1.83-1.06v.04l-1.82 1.06c-.01-.01-.01-.02-.01-.04"/><path class="st13" d="M183.85 138.79l1.82-1.06c0 .02 0 .03.01.05l-1.83 1.06c.01-.02.01-.04 0-.05"/><path class="st14" d="M183.86 138.83l1.83-1.06c0 .02 0 .03.01.05l-1.83 1.06c0-.02-.01-.03-.01-.05"/><path class="st15" d="M183.87 138.88l1.83-1.06c0 .02.01.03.01.05l-1.82 1.06c-.01-.02-.02-.03-.02-.05"/><path class="st16" d="M183.88 138.93l1.82-1.06c0 .02.01.03.01.05l-1.82 1.06c0-.02-.01-.04-.01-.05"/><path class="st17" d="M183.89 138.98l1.82-1.06c.01.02.01.03.01.05l-1.83 1.06c.01-.02 0-.04 0-.05"/><path class="st18" d="M183.9 139.02l1.83-1.06c0 .02.01.03.01.05l-1.82 1.06c-.01-.01-.01-.03-.02-.05"/><path class="st19" d="M183.92 139.07l1.82-1.06c.01.02.01.03.02.05l-1.82 1.06a.076.076 0 01-.02-.05"/><path class="st20" d="M183.93 139.12l1.82-1.06c.01.01.01.03.02.05l-1.82 1.06c-.01-.02-.01-.03-.02-.05"/><path class="st21" d="M183.95 139.17l1.82-1.06c.01.02.01.03.02.04l-1.82 1.06c-.01-.01-.01-.03-.02-.04"/><path class="st22" d="M183.97 139.21l1.82-1.06c.01.01.01.03.02.04l-1.83 1.06c0-.01-.01-.02-.01-.04"/><path class="st23" d="M183.98 139.26l1.83-1.06c0 .01.01.03.02.04L184 139.3c0-.01-.01-.03-.02-.04"/><path class="st24" d="M184 139.3l1.82-1.06c.01.01.01.03.02.04l-1.83 1.06c.01-.01 0-.02-.01-.04"/><path class="st25" d="M184.02 139.35l1.83-1.06c.01.02.02.03.02.05l-1.83 1.06c0-.02-.01-.04-.02-.05"/><path class="st26" d="M184.05 139.4l1.83-1.06.03.06-1.82 1.06c-.03-.03-.03-.05-.04-.06"/><path class="st27" d="M184.07 139.45l1.82-1.06c.02.03.03.06.05.08l-1.82 1.06c-.02-.03-.03-.05-.05-.08"/><path class="st28" d="M184.12 139.53l1.82-1.06c.02.04.04.07.07.1l-1.82 1.06a.36.36 0 01-.07-.1"/><path class="st27" d="M184.19 139.64l1.82-1.06c.02.03.04.06.06.08l-1.83 1.06c-.01-.03-.03-.05-.05-.08"/><path class="st26" d="M184.25 139.72l1.83-1.06c.01.02.03.04.04.05l-1.83 1.06c-.02-.01-.03-.03-.04-.05"/><path class="st25" d="M184.29 139.77l1.83-1.06c.01.01.02.03.04.04l-1.82 1.06c-.03-.01-.04-.02-.05-.04"/><path class="st24" d="M184.32 139.82l1.82-1.06c.01.01.02.03.03.04l-1.82 1.06c-.01-.01-.02-.03-.03-.04"/><path class="st23" d="M184.36 139.86l1.82-1.06c.01.01.02.03.04.04l-1.82 1.06c-.02-.01-.03-.03-.04-.04"/><path class="st22" d="M184.39 139.9l1.82-1.06c.01.01.02.03.04.04l-1.82 1.06-.04-.04"/><path class="st21" d="M184.43 139.94l1.82-1.06.04.04-1.82 1.06c-.01-.02-.03-.03-.04-.04"/><path class="st20" d="M184.47 139.98l1.82-1.06.04.04-1.82 1.06c-.01-.02-.03-.03-.04-.04"/><path class="st19" d="M184.51 140.01l1.82-1.06c.01.01.03.02.04.04l-1.83 1.06c0-.01-.02-.02-.03-.04"/><path class="st18" d="M184.55 140.05l1.83-1.06c.01.01.03.02.04.03l-1.82 1.06c-.02-.01-.04-.02-.05-.03"/><path class="st17" d="M184.59 140.08l1.82-1.06c.01.01.03.02.04.03l-1.82 1.06c-.01-.01-.03-.02-.04-.03"/><path class="st16" d="M184.63 140.11l1.82-1.06c.01.01.03.02.04.03l-1.82 1.06a.138.138 0 00-.04-.03"/><path class="st15" d="M184.67 140.14l1.82-1.06c.01.01.03.02.04.03l-1.83 1.06c0-.01-.02-.02-.03-.03"/><path class="st14" d="M184.71 140.17l1.83-1.06c.01.01.03.02.04.03l-1.83 1.06c-.01-.02-.03-.02-.04-.03"/><path class="st13" d="M184.75 140.19l1.83-1.06h.01c.01.01.02.01.03.02l-1.83 1.06c-.01 0-.02-.01-.04-.02.01.01 0 0 0 0"/><path class="st12" d="M184.79 140.21l1.83-1.06c.01.01.02.01.04.02l-1.83 1.06c-.02 0-.03-.01-.04-.02"/><path class="st11" d="M184.83 140.23l1.83-1.06c.01.01.02.01.04.02l-1.83 1.06c-.02 0-.03-.01-.04-.02"/><path class="st10" d="M184.86 140.25l1.83-1.06c.01 0 .02.01.04.02l-1.82 1.06c-.02-.01-.03-.01-.05-.02"/><path class="st9" d="M184.9 140.27l1.82-1.06c.01 0 .02.01.04.01l-1.82 1.06c-.02-.01-.03-.01-.04-.01"/><path class="st29" d="M184.94 140.28l1.82-1.06c.01 0 .03.01.04.01l-1.83 1.06c-.01 0-.02-.01-.03-.01"/><path class="st30" d="M184.97 140.29l1.83-1.06c.01.01.02.01.04.01l-1.82 1.06c-.02 0-.03 0-.05-.01"/><path class="st31" d="M185.01 140.3l1.82-1.06c.01 0 .02.01.04.01l-1.82 1.06c-.01 0-.03 0-.04-.01"/><path class="st32" d="M185.05 140.31l1.82-1.06c.01 0 .03.01.04.01l-1.83 1.06c-.01-.01-.02-.01-.03-.01"/><path class="st33" d="M185.09 140.32l1.83-1.06h.04l-1.83 1.06h-.04"/><path class="st34" d="M185.13 140.32l1.83-1.06h.04l-1.82 1.06h-.05"/><path class="st35" d="M185.17 140.32l1.82-1.06h.05l-1.82 1.06h-.05"/><path class="st36" d="M185.22 140.32l1.82-1.06c.02 0 .03 0 .05-.01l-1.83 1.06c-.01.01-.02.01-.04.01"/><path class="st37" d="M185.27 140.31l1.83-1.06c.02 0 .04-.01.06-.02l-1.82 1.06c-.03.01-.05.02-.07.02"/><path class="st38" d="M185.33 140.29l1.82-1.06c.03-.01.05-.02.07-.04l-1.82 1.06c-.01.02-.04.04-.07.04"/></g></g><g class="st7"><defs><path id="SVGID_3_" class="st7" d="M180.36 128.35c-.61.35-1.22.71-1.82 1.06-.51-.29-.92-1-.92-1.58.61-.35 1.22-.71 1.82-1.06-.61.35-1.22.71-1.82 1.06 0-.29.1-.49.27-.59l1.83-1.06c-.16.1-.27.3-.27.59-.01.58.4 1.29.91 1.58z"/></defs><clipPath id="SVGID_4_"><use xlink:href="#SVGID_3_" overflow="visible"/></clipPath><g clip-path="url(#SVGID_4_)"><path class="st38" d="M177.88 127.24l1.83-1.06a.49.49 0 00-.16.16l-1.83 1.06c.05-.07.1-.13.16-.16"/><path class="st37" d="M177.72 127.39l1.83-1.06-.03.06-1.82 1.06c0-.02.01-.04.02-.06"/><path class="st36" d="M177.69 127.46l1.82-1.06c-.01.02-.02.03-.02.05l-1.82 1.06c0-.02.01-.04.02-.05"/><path class="st35" d="M177.67 127.51l1.82-1.06c0 .02-.01.03-.01.05l-1.83 1.06c.01-.02.01-.04.02-.05"/><path class="st34" d="M177.65 127.56l1.83-1.06c0 .02-.01.03-.01.05l-1.83 1.06c0-.02.01-.04.01-.05"/><path class="st33" d="M177.64 127.6l1.83-1.06c0 .01-.01.03-.01.04l-1.82 1.06c-.01-.01 0-.02 0-.04"/><path class="st32" d="M177.63 127.65l1.82-1.06c0 .01 0 .03-.01.04l-1.82 1.06c0-.01.01-.03.01-.04"/><path class="st31" d="M177.62 127.69l1.82-1.06v.04l-1.83 1.06c.01-.01.01-.02.01-.04"/><path class="st30" d="M177.62 127.74l1.83-1.06v.04l-1.82 1.06c-.01-.01-.01-.03-.01-.04"/><path class="st29" d="M177.62 127.78l1.82-1.06v.04l-1.82 1.06a.03.03 0 010-.04"/><path class="st9" d="M177.61 127.82l1.82-1.06v.04l-1.83 1.06c.01-.01.01-.02.01-.04"/><path class="st10" d="M177.61 127.87l1.83-1.06v.04l-1.83 1.06a.03.03 0 000-.04"/><path class="st11" d="M177.62 127.91l1.83-1.06v.04l-1.82 1.06c-.01-.01-.01-.02-.01-.04"/><path class="st12" d="M177.62 127.96l1.82-1.06v.04l-1.83 1.06c.01-.02.01-.03.01-.04"/><path class="st13" d="M177.63 128l1.83-1.06c0 .01 0 .03.01.04l-1.83 1.06c-.01-.01-.01-.02-.01-.04"/><path class="st14" d="M177.63 128.05l1.83-1.06c0 .02 0 .03.01.05l-1.83 1.06c0-.02 0-.04-.01-.05"/><path class="st15" d="M177.64 128.09l1.83-1.06c0 .02 0 .03.01.04l-1.82 1.06c-.01 0-.02-.02-.02-.04"/><path class="st16" d="M177.65 128.14l1.82-1.06c0 .02.01.03.01.05l-1.83 1.06c.01-.02 0-.04 0-.05"/><path class="st17" d="M177.66 128.19l1.83-1.06c0 .02.01.03.01.05l-1.82 1.06a.169.169 0 01-.02-.05"/><path class="st18" d="M177.67 128.24l1.82-1.06c0 .02.01.03.01.05l-1.83 1.06c.01-.02.01-.04 0-.05"/><path class="st19" d="M177.69 128.28l1.83-1.06c0 .02.01.03.01.05l-1.83 1.06c0-.01-.01-.03-.01-.05"/><path class="st20" d="M177.7 128.33l1.83-1.06c.01.02.01.03.02.05l-1.82 1.06c-.02-.02-.02-.03-.03-.05"/><path class="st21" d="M177.72 128.38l1.82-1.06c.01.02.01.03.02.04l-1.82 1.06a.076.076 0 01-.02-.04"/><path class="st22" d="M177.74 128.42l1.82-1.06c.01.01.01.03.02.05l-1.83 1.06c0-.02-.01-.03-.01-.05"/><path class="st23" d="M177.75 128.47l1.83-1.06c.01.01.01.03.02.04l-1.83 1.06c0-.01-.01-.03-.02-.04"/><path class="st24" d="M177.77 128.51l1.83-1.06c.01.01.01.03.02.04l-1.83 1.06c-.01-.01-.01-.02-.02-.04"/><path class="st25" d="M177.79 128.56l1.83-1.06c.01.02.02.03.02.05l-1.83 1.06c0-.02-.01-.04-.02-.05"/><path class="st26" d="M177.81 128.6l1.83-1.06c.01.02.02.04.03.05l-1.82 1.06c-.02-.01-.03-.03-.04-.05"/><path class="st27" d="M177.84 128.66l1.82-1.06c.01.03.03.05.04.07l-1.83 1.06c0-.02-.01-.05-.03-.07"/><path class="st28" d="M177.88 128.73l1.83-1.06c.02.04.05.08.07.12l-1.83 1.06a.746.746 0 00-.07-.12"/><path class="st27" d="M177.96 128.85l1.83-1.06c.02.03.04.06.06.08l-1.82 1.06a.5.5 0 01-.07-.08"/><path class="st26" d="M178.02 128.93l1.82-1.06c.01.02.03.04.04.05l-1.83 1.06a.219.219 0 01-.03-.05"/><path class="st25" d="M178.06 128.98l1.83-1.06c.01.01.02.03.04.04l-1.83 1.06a.078.078 0 01-.04-.04"/><path class="st24" d="M178.09 129.03l1.83-1.06c.01.01.02.03.04.04l-1.83 1.06c-.02-.01-.03-.03-.04-.04"/><path class="st23" d="M178.13 129.07l1.83-1.06c.01.01.02.03.04.04l-1.83 1.06c-.02-.01-.03-.03-.04-.04"/><path class="st22" d="M178.16 129.11l1.83-1.06c.01.01.02.03.04.04l-1.82 1.06c-.02-.01-.03-.03-.05-.04"/><path class="st21" d="M178.2 129.15l1.82-1.06.04.04-1.82 1.06-.04-.04"/><path class="st20" d="M178.24 129.19l1.82-1.06.04.04-1.83 1.06c0-.02-.02-.03-.03-.04"/><path class="st19" d="M178.28 129.23l1.83-1.06.04.04-1.82 1.06c-.02-.02-.04-.03-.05-.04"/><path class="st18" d="M178.32 129.26l1.82-1.06c.01.01.03.02.04.03l-1.83 1.06c0-.01-.01-.02-.03-.03"/><path class="st17" d="M178.36 129.29l1.83-1.06c.01.01.03.02.04.03l-1.83 1.06c-.01 0-.02-.01-.04-.03"/><path class="st16" d="M178.4 129.32l1.83-1.06c.01.01.03.02.04.03l-1.83 1.06a.138.138 0 00-.04-.03"/><path class="st15" d="M178.44 129.35l1.83-1.06c.01.01.03.02.04.03l-1.83 1.06a.138.138 0 00-.04-.03"/><path class="st14" d="M178.48 129.38l1.83-1.06c.01.01.03.02.04.02l-1.82 1.06c-.02 0-.03-.01-.05-.02"/><path class="st13" d="M178.52 129.4l1.83-1.06.01.01-1.83 1.06-.01-.01"/></g></g><g class="st7"><defs><path id="SVGID_5_" class="st7" d="M187.23 139.2l-1.82 1.06c.17-.1.27-.3.27-.59l1.83-1.06c-.01.29-.11.49-.28.59z"/></defs><clipPath id="SVGID_6_"><use xlink:href="#SVGID_5_" overflow="visible"/></clipPath><g clip-path="url(#SVGID_6_)"><path class="st41" d="M185.68 139.67l1.82-1.06-1.82 1.06"/><path class="st42" d="M185.68 139.67l1.83-1.06v.05l-1.83 1.06v-.05"/><path class="st43" d="M185.68 139.72l1.83-1.06v.04l-1.82 1.06c-.01-.02-.01-.03-.01-.04"/><path class="st44" d="M185.67 139.76l1.82-1.06v.04l-1.82 1.06v-.04"/><path class="st45" d="M185.67 139.8l1.82-1.06c0 .02 0 .03-.01.04l-1.83 1.06c.02-.01.02-.02.02-.04"/><path class="st46" d="M185.66 139.85l1.83-1.06c0 .02-.01.03-.01.04l-1.82 1.06v-.04"/><path class="st47" d="M185.65 139.89l1.82-1.06c0 .02-.01.03-.01.05l-1.82 1.06c.01-.01.01-.03.01-.05"/><path class="st48" d="M185.64 139.94l1.82-1.06c0 .02-.01.03-.02.05l-1.83 1.06c.02-.02.03-.03.03-.05"/><path class="st49" d="M185.63 139.99l1.83-1.06c-.01.02-.01.04-.02.05l-1.82 1.06c-.01-.01 0-.03.01-.05"/><path class="st50" d="M185.6 140.04l1.82-1.06-.03.06-1.83 1.06c.02-.01.03-.03.04-.06"/><path class="st51" d="M185.57 140.11l1.83-1.06a.49.49 0 01-.16.16l-1.82 1.06c.05-.05.11-.1.15-.16"/></g></g><g class="st7"><defs><path id="SVGID_7_" class="st7" d="M177.88 127.24l1.83-1.06c.17-.1.4-.08.65.06l-1.82 1.06c-.26-.15-.49-.16-.66-.06z"/></defs><clipPath id="SVGID_8_"><use xlink:href="#SVGID_7_" overflow="visible"/></clipPath><g clip-path="url(#SVGID_8_)"><path class="st51" d="M177.88 127.24l1.83-1.06c.02-.02.05-.03.07-.03l-1.82 1.06c-.03 0-.05.01-.08.03"/><path class="st50" d="M177.96 127.2l1.82-1.06c.02-.01.04-.01.06-.02l-1.82 1.06c-.02.01-.04.01-.06.02"/><path class="st49" d="M178.02 127.19l1.82-1.06c.02 0 .03-.01.05-.01l-1.82 1.06c-.01 0-.03 0-.05.01"/><path class="st48" d="M178.08 127.18l1.82-1.06h.05l-1.82 1.06c-.02-.01-.04 0-.05 0"/><path class="st47" d="M178.12 127.17l1.82-1.06h.04l-1.82 1.06c-.01.01-.02 0-.04 0"/><path class="st46" d="M178.17 127.18l1.82-1.06h.04l-1.82 1.06h-.04"/><path class="st45" d="M178.21 127.18l1.82-1.06c.01 0 .03 0 .04.01l-1.82 1.06c-.02 0-.03-.01-.04-.01"/><path class="st44" d="M178.25 127.19l1.82-1.06c.01 0 .03 0 .04.01l-1.83 1.06c-.01-.01-.02-.01-.03-.01"/><path class="st43" d="M178.29 127.19l1.83-1.06c.01 0 .03 0 .04.01l-1.82 1.06c-.03 0-.04 0-.05-.01"/><path class="st42" d="M178.32 127.21l1.82-1.06c.01 0 .03.01.04.01l-1.82 1.06c-.01-.01-.02-.01-.04-.01"/><path class="st41" d="M178.36 127.22l1.82-1.06c.01 0 .02.01.04.01l-1.83 1.06s-.02-.01-.03-.01"/><path class="st53" d="M178.4 127.23l1.83-1.06c.01 0 .02.01.04.02l-1.83 1.06c-.02-.01-.03-.01-.04-.02"/><path class="st54" d="M178.43 127.25l1.83-1.06c.01 0 .02.01.04.02l-1.83 1.06c-.01-.01-.02-.02-.04-.02"/><path class="st55" d="M178.47 127.26l1.83-1.06c.01.01.02.01.04.02l-1.83 1.06c-.01 0-.03-.01-.04-.02"/><path class="st56" d="M178.51 127.29l1.83-1.06c.01 0 .02.01.03.02l-1.82 1.06c-.02-.01-.03-.02-.04-.02"/></g></g><path class="st57" d="M178.53 129.41l1.83-1.06 5.33 3.08-1.83 1.05z"/><path class="st58" d="M183.86 132.48l1.83-1.05-.02 6.12-1.83 1.06z"/><path class="st59" d="M183.86 132.48l1.83-1.05 1.83 1.05-1.82 1.07z"/><path class="st60" d="M185.7 133.55l1.82-1.07-.02 6.13-1.82 1.06z"/><path class="st59" d="M178.54 127.3l1.82-1.06 5.33 3.08-1.82 1.06z"/><path class="st59" d="M183.87 130.38l1.82-1.06 1.84 1.06-1.83 1.06z"/><path class="st57" d="M185.7 133.55l1.82-1.07 5.33 3.08-1.83 1.06z"/><path class="st58" d="M183.88 124.25l1.83-1.06-.02 6.13-1.82 1.06z"/><g class="st7"><defs><path id="SVGID_9_" class="st7" d="M185.98 122.6c-.17.1-.27.3-.27.59l-1.82 1.06c0-.29.1-.5.27-.59.54-.32 1.27-.74 1.82-1.06z"/></defs><clipPath id="SVGID_10_"><use xlink:href="#SVGID_9_" overflow="visible"/></clipPath><g clip-path="url(#SVGID_10_)"><path class="st38" d="M184.15 123.66l1.83-1.06a.49.49 0 00-.16.16l-1.83 1.06c.05-.07.1-.12.16-.16"/><path class="st37" d="M183.99 123.82l1.83-1.06-.03.06-1.83 1.06.03-.06"/><path class="st36" d="M183.96 123.88l1.83-1.06c-.01.02-.01.03-.02.05l-1.83 1.06c0-.02.01-.03.02-.05"/><path class="st35" d="M183.94 123.93l1.83-1.06c-.01.02-.01.03-.02.05l-1.82 1.06c-.01-.02 0-.03.01-.05"/><path class="st34" d="M183.92 123.98l1.82-1.06c0 .02-.01.03-.01.05l-1.82 1.06c0-.02.01-.03.01-.05"/><path class="st33" d="M183.91 124.03l1.82-1.06c0 .02-.01.03-.01.04l-1.83 1.06c.01-.01.01-.03.02-.04"/><path class="st32" d="M183.9 124.07l1.83-1.06c0 .02 0 .03-.01.04l-1.82 1.06c-.01-.01 0-.02 0-.04"/><path class="st31" d="M183.89 124.12l1.82-1.06v.04l-1.83 1.06c.01-.01.01-.03.01-.04"/><path class="st30" d="M183.89 124.16l1.83-1.06v.04l-1.82 1.06c-.01-.01-.01-.02-.01-.04"/><path class="st29" d="M183.88 124.21l1.82-1.06v.04l-1.82 1.06v-.04"/><path class="st9" d="M183.88 124.25l1.83-1.06-1.83 1.06"/></g></g><path class="st59" d="M185.7 131.44l1.83-1.06 5.32 3.07-1.82 1.06z"/><path class="st60" d="M185.72 125.31l1.82-1.06-.01 6.13-1.83 1.06z"/><g class="st7"><defs><path id="SVGID_11_" class="st7" d="M184.15 123.66l1.83-1.06c.17-.1.4-.08.65.07l-1.82 1.06c-.26-.15-.49-.16-.66-.07z"/></defs><clipPath id="SVGID_12_"><use xlink:href="#SVGID_11_" overflow="visible"/></clipPath><g clip-path="url(#SVGID_12_)"><path class="st51" d="M184.15 123.66l1.83-1.06c.02-.01.05-.03.07-.03l-1.82 1.06c-.03.01-.06.02-.08.03"/><path class="st50" d="M184.23 123.63l1.82-1.06c.02-.01.04-.01.06-.02l-1.83 1.06c-.01 0-.03.01-.05.02"/><path class="st49" d="M184.29 123.61l1.83-1.06c.02 0 .03-.01.05-.01l-1.83 1.06c-.02 0-.03.01-.05.01"/><path class="st48" d="M184.34 123.6l1.83-1.06h.05l-1.82 1.06h-.06"/><path class="st47" d="M184.39 123.6l1.82-1.06h.04l-1.82 1.06h-.04"/><path class="st46" d="M184.43 123.6l1.82-1.06h.04l-1.83 1.06h-.03"/><path class="st45" d="M184.47 123.61l1.83-1.06c.01 0 .03 0 .04.01l-1.83 1.06c-.01-.01-.02-.01-.04-.01"/><path class="st44" d="M184.51 123.61l1.83-1.06c.01 0 .02 0 .04.01l-1.82 1.06c-.02 0-.03-.01-.05-.01"/><path class="st43" d="M184.55 123.62l1.82-1.06c.01 0 .02.01.04.01l-1.83 1.06s-.02 0-.03-.01"/><path class="st42" d="M184.59 123.63l1.83-1.06c.01 0 .02.01.04.01l-1.82 1.06c-.02 0-.04 0-.05-.01"/><path class="st41" d="M184.63 123.64l1.82-1.06c.01.01.02.01.04.01l-1.83 1.06c-.01 0-.02 0-.03-.01"/><path class="st53" d="M184.66 123.66l1.83-1.06c.01 0 .02.01.04.02l-1.83 1.06c-.01-.01-.02-.02-.04-.02"/><path class="st54" d="M184.7 123.67l1.83-1.06c.01 0 .03.01.04.02l-1.82 1.06c-.02 0-.04-.01-.05-.02"/><path class="st55" d="M184.74 123.69l1.82-1.06c.01 0 .03.01.04.02l-1.83 1.06c-.01-.01-.02-.01-.03-.02"/><path class="st56" d="M184.78 123.71l1.83-1.06c.01 0 .02.01.03.02l-1.82 1.06c-.02-.01-.03-.01-.04-.02"/></g></g><g class="st7"><defs><path id="SVGID_13_" class="st7" d="M193.51 135.63l-1.83 1.06c.16-.1.27-.3.27-.58 0-.58-.41-1.3-.92-1.59l1.82-1.06c.51.29.92 1.01.92 1.59 0 .28-.1.48-.26.58z"/></defs><clipPath id="SVGID_14_"><use xlink:href="#SVGID_13_" overflow="visible"/></clipPath><g clip-path="url(#SVGID_14_)"><path class="st56" d="M191.03 134.51l1.82-1.06.01.01-1.82 1.06-.01-.01"/><path class="st64" d="M191.04 134.52l1.82-1.06c.01.01.03.02.04.02l-1.83 1.06c0-.01-.02-.01-.03-.02"/><path class="st65" d="M191.08 134.54l1.83-1.06c.01.01.03.02.04.03l-1.82 1.06a.107.107 0 01-.05-.03"/><path class="st66" d="M191.12 134.57l1.82-1.06c.01.01.03.02.04.03l-1.83 1.06-.03-.03"/><path class="st67" d="M191.16 134.6l1.83-1.06c.01.01.03.02.04.03l-1.82 1.06a.107.107 0 01-.05-.03"/><path class="st68" d="M191.2 134.63l1.82-1.06c.01.01.03.02.04.03l-1.83 1.06-.03-.03"/><path class="st69" d="M191.24 134.66l1.83-1.06c.01.01.03.02.04.04l-1.83 1.06c-.01-.02-.03-.03-.04-.04"/><path class="st70" d="M191.28 134.7l1.83-1.06c.01.01.03.02.04.04l-1.83 1.06c-.01-.02-.03-.03-.04-.04"/><path class="st71" d="M191.32 134.73l1.83-1.06.04.04-1.83 1.06a.078.078 0 01-.04-.04"/><path class="st72" d="M191.36 134.77l1.83-1.06.04.04-1.82 1.06c-.03-.01-.04-.03-.05-.04"/><path class="st73" d="M191.4 134.81l1.82-1.06c.01.01.02.03.04.04l-1.83 1.06c-.01-.01-.02-.03-.03-.04m.03.04l1.83-1.06c.01.01.02.03.04.04l-1.83 1.06a.078.078 0 01-.04-.04m.04.04l1.83-1.06c.01.01.02.03.04.04l-1.83 1.06a.078.078 0 01-.04-.04m.03.05l1.83-1.06c.01.02.03.04.04.05l-1.83 1.06c-.01-.02-.02-.04-.04-.05m.04.05l1.83-1.06c.02.03.04.06.06.08l-1.83 1.06c-.02-.03-.04-.05-.06-.08"/><path class="st73" d="M191.6 135.07l1.83-1.06c.02.04.05.07.07.11l-1.83 1.06c-.02-.03-.05-.07-.07-.11"/><path class="st73" d="M191.67 135.18l1.83-1.06a.3.3 0 01.04.08l-1.82 1.06c-.02-.02-.03-.05-.05-.08"/><path class="st73" d="M191.72 135.26l1.82-1.06.03.06-1.83 1.06c-.01-.02-.01-.04-.02-.06m.02.06l1.83-1.06c.01.02.02.03.02.05l-1.82 1.06c-.01-.02-.02-.03-.03-.05"/><path class="st73" d="M191.77 135.37l1.82-1.06c.01.02.01.03.02.04l-1.82 1.06c-.01-.01-.01-.03-.02-.04"/><path class="st73" d="M191.79 135.41l1.82-1.06c.01.01.01.03.02.04l-1.82 1.06c-.01-.01-.01-.02-.02-.04"/><path class="st72" d="M191.81 135.46l1.82-1.06c.01.01.01.03.02.04l-1.82 1.06a.076.076 0 01-.02-.04"/><path class="st71" d="M191.83 135.5l1.82-1.06c.01.01.01.03.02.04l-1.82 1.06c-.01-.01-.02-.02-.02-.04"/><path class="st70" d="M191.84 135.55l1.82-1.06c.01.02.01.03.02.05l-1.83 1.06c0-.02 0-.04-.01-.05"/><path class="st69" d="M191.86 135.59l1.83-1.06c0 .02.01.03.01.05l-1.83 1.06c0-.01-.01-.03-.01-.05"/><path class="st68" d="M191.87 135.64l1.83-1.06c.01.02.01.04.01.05l-1.82 1.06c-.01-.02-.01-.03-.02-.05"/><path class="st67" d="M191.89 135.69l1.82-1.06c0 .02.01.03.01.05l-1.82 1.06c0-.02-.01-.03-.01-.05"/><path class="st66" d="M191.9 135.74l1.82-1.06c0 .02.01.03.01.05l-1.83 1.06c.01-.02 0-.04 0-.05"/><path class="st65" d="M191.91 135.79l1.83-1.06c0 .02.01.03.01.05l-1.82 1.06a.169.169 0 01-.02-.05"/><path class="st64" d="M191.92 135.84l1.82-1.06c0 .01.01.03.01.05l-1.82 1.06c0-.02 0-.04-.01-.05"/><path class="st56" d="M191.93 135.88l1.82-1.06c0 .02.01.03.01.05l-1.82 1.06c-.01-.02-.01-.03-.01-.05"/><path class="st55" d="M191.94 135.93l1.82-1.06c0 .02 0 .03.01.05l-1.82 1.06c-.01-.02-.01-.04-.01-.05"/><path class="st54" d="M191.94 135.97l1.82-1.06v.04l-1.82 1.06v-.04"/><path class="st53" d="M191.95 136.02l1.82-1.06v.04l-1.82 1.06v-.04"/><path class="st41" d="M191.95 136.06l1.82-1.06v.04l-1.83 1.06c.01-.01.01-.03.01-.04"/><path class="st42" d="M191.95 136.1l1.83-1.06v.05l-1.82 1.06c-.01-.02-.01-.03-.01-.05"/><path class="st43" d="M191.95 136.15l1.82-1.06v.04l-1.83 1.06c.01-.01.01-.03.01-.04"/><path class="st44" d="M191.94 136.19l1.83-1.06v.04l-1.83 1.06v-.04"/><path class="st45" d="M191.94 136.24l1.83-1.06c0 .01 0 .03-.01.04l-1.82 1.06c-.01-.01 0-.03 0-.04"/><path class="st46" d="M191.93 136.28l1.82-1.06c0 .02 0 .03-.01.04l-1.83 1.06c.02-.01.02-.03.02-.04"/><path class="st47" d="M191.92 136.32l1.83-1.06c0 .02-.01.03-.01.05l-1.83 1.06c.01-.01.01-.03.01-.05"/><path class="st48" d="M191.91 136.37l1.83-1.06c0 .02-.01.03-.02.05l-1.82 1.06c0-.02.01-.03.01-.05"/><path class="st49" d="M191.9 136.42l1.82-1.06c-.01.02-.01.04-.02.05l-1.82 1.06c0-.02.01-.04.02-.05"/><path class="st50" d="M191.87 136.47l1.82-1.06-.03.06-1.83 1.06a.21.21 0 00.04-.06"/><path class="st51" d="M191.84 136.53l1.82-1.06c-.04.07-.1.12-.16.15l-1.83 1.06c.07-.03.13-.08.17-.15"/></g></g><g class="st7"><defs><path id="SVGID_15_" class="st7" d="M184.81 123.73l1.82-1.06c.51.29.91 1 .91 1.59l-1.83 1.06c.01-.59-.4-1.3-.9-1.59z"/></defs><clipPath id="SVGID_16_"><use xlink:href="#SVGID_15_" overflow="visible"/></clipPath><g clip-path="url(#SVGID_16_)"><path class="st56" d="M184.81 123.73l1.82-1.06h.01l-1.83 1.06"/><path class="st64" d="M184.81 123.73l1.83-1.06c.01.01.03.02.04.02l-1.82 1.06c-.02 0-.03-.01-.05-.02"/><path class="st65" d="M184.85 123.76l1.82-1.06c.01.01.03.02.04.03l-1.82 1.06c-.01-.02-.02-.03-.04-.03"/><path class="st66" d="M184.89 123.78l1.82-1.06c.01.01.03.02.04.03l-1.83 1.06c0-.01-.01-.02-.03-.03"/><path class="st67" d="M184.93 123.81l1.83-1.06c.01.01.03.02.04.03l-1.82 1.06c-.02-.01-.03-.02-.05-.03"/><path class="st68" d="M184.97 123.84l1.82-1.06c.02.01.03.02.04.03l-1.82 1.06a.138.138 0 00-.04-.03"/><path class="st69" d="M185.01 123.87l1.82-1.06c.01.01.03.02.04.04l-1.82 1.06-.04-.04"/><path class="st70" d="M185.05 123.91l1.82-1.06c.01.01.03.02.04.04l-1.83 1.06c0-.02-.01-.03-.03-.04"/><path class="st71" d="M185.09 123.95l1.83-1.06.04.04-1.83 1.06a.078.078 0 00-.04-.04"/><path class="st72" d="M185.13 123.98l1.83-1.06c.01.01.02.03.04.04l-1.82 1.06c-.02-.01-.03-.02-.05-.04"/><path class="st73" d="M185.17 124.02l1.82-1.06c.01.01.02.03.04.04l-1.82 1.06a.078.078 0 01-.04-.04"/><path class="st73" d="M185.2 124.06l1.82-1.06c.01.01.02.03.04.04l-1.83 1.06c0-.01-.01-.02-.03-.04m.04.04l1.83-1.06c.01.02.02.03.04.04l-1.83 1.06a.078.078 0 01-.04-.04m.03.05l1.83-1.06c.01.02.03.03.04.05l-1.83 1.06c-.01-.02-.02-.04-.04-.05m.04.05l1.83-1.06c.02.03.04.05.06.08l-1.82 1.06c-.03-.02-.05-.05-.07-.08"/><path class="st73" d="M185.37 124.28l1.82-1.06c.02.04.05.07.07.11l-1.82 1.06a.673.673 0 00-.07-.11"/><path class="st73" d="M185.44 124.39l1.82-1.06c.02.03.03.06.05.08l-1.82 1.06c-.02-.03-.03-.05-.05-.08"/><path class="st73" d="M185.49 124.47l1.82-1.06.03.06-1.82 1.06c-.02-.02-.02-.04-.03-.06"/><path class="st73" d="M185.52 124.53l1.82-1.06c.01.02.02.03.02.05l-1.82 1.06a.169.169 0 01-.02-.05"/><path class="st73" d="M185.54 124.57l1.82-1.06c.01.02.01.03.02.04l-1.82 1.06c-.01 0-.01-.02-.02-.04m.02.05l1.82-1.06c.01.02.01.03.02.04l-1.82 1.06c-.01-.01-.02-.02-.02-.04"/><path class="st72" d="M185.58 124.66l1.82-1.06c.01.01.01.03.02.04l-1.82 1.06c-.01-.01-.02-.02-.02-.04"/><path class="st71" d="M185.6 124.71l1.82-1.06c.01.02.01.03.02.05l-1.82 1.06c-.01-.02-.02-.04-.02-.05"/><path class="st70" d="M185.61 124.75l1.82-1.06c.01.02.01.03.02.05l-1.83 1.06c0-.01 0-.03-.01-.05"/><path class="st69" d="M185.63 124.8l1.83-1.06c0 .02.01.03.01.05l-1.83 1.06c0-.02-.01-.03-.01-.05"/><path class="st68" d="M185.64 124.85l1.83-1.06c0 .02.01.03.01.05l-1.82 1.06c-.01-.02-.01-.04-.02-.05"/><path class="st67" d="M185.66 124.9l1.82-1.06c.01.02.01.03.01.05l-1.83 1.06c.01-.02 0-.04 0-.05"/><path class="st66" d="M185.67 124.95l1.83-1.06c0 .02.01.03.01.05l-1.83 1.06c0-.02 0-.04-.01-.05"/><path class="st65" d="M185.68 124.99l1.83-1.06c0 .02.01.03.01.05l-1.83 1.06c0-.01 0-.03-.01-.05"/><path class="st64" d="M185.69 125.04l1.83-1.06c0 .02.01.03.01.04l-1.82 1.06c-.01-.01-.01-.02-.02-.04"/><path class="st56" d="M185.7 125.09l1.82-1.06c0 .02.01.03.01.05l-1.82 1.06c0-.02-.01-.03-.01-.05"/><path class="st55" d="M185.71 125.14l1.82-1.06c0 .01 0 .03.01.04l-1.82 1.06c-.01-.01-.01-.03-.01-.04"/><path class="st54" d="M185.71 125.18l1.82-1.06v.04l-1.82 1.06v-.04"/><path class="st53" d="M185.72 125.23l1.82-1.06v.05l-1.82 1.06v-.05"/><path class="st41" d="M185.72 125.27l1.82-1.06v.04l-1.83 1.06c.01-.01.01-.03.01-.04"/></g></g><path class="st1" d="M184.83 116.8c7.29 4.21 13.18 14.41 13.15 22.79-.02 8.38-5.95 11.76-13.24 7.55-7.3-4.21-13.18-14.42-13.16-22.8.02-8.37 5.95-11.76 13.25-7.54zm6.19 19.82c.51.29.92.06.92-.52 0-.58-.41-1.3-.92-1.59l-5.33-3.08.02-6.12c0-.58-.4-1.29-.91-1.58-.51-.3-.92-.06-.92.52l-.02 6.12-5.33-3.08c-.51-.29-.92-.06-.92.52 0 .58.41 1.29.92 1.58l5.33 3.08-.02 6.12c0 .58.41 1.29.92 1.59.51.29.92.05.92-.53l.02-6.12 5.32 3.09"/><path class="st73" d="M183.84 138.61l.02-6.12 1.83 1.06-.02 6.12c0 .58-.41.82-.92.53-.5-.3-.91-1.01-.91-1.59zm7.19-4.1c.51.29.92 1.01.92 1.59 0 .58-.42.81-.92.52l-5.33-3.08-1.83-1.06-5.33-3.08c-.51-.29-.92-1-.92-1.58 0-.58.42-.82.92-.52l5.33 3.08 1.83 1.06 5.33 3.07z"/><path class="st73" d="M184.81 123.73c.51.29.91 1 .91 1.58l-.02 6.12-1.83-1.06.02-6.12c0-.58.41-.82.92-.52z"/><path class="st13" d="M199.8 137.93l-.03-.64c-.01-.1-.02-.2-.02-.29 0-.04-.01-.08-.01-.12 0-.07-.01-.15-.02-.23-.02-.22-.05-.43-.07-.65l-.09-.66v-.04c-.03-.21-.07-.42-.11-.63-.04-.23-.09-.46-.14-.69l-.06-.24c-.01-.05-.02-.1-.03-.14-.02-.1-.05-.2-.07-.31l-.18-.7-.15-.51-.03-.1-.03-.09c-.07-.23-.14-.46-.22-.68-.08-.22-.15-.45-.24-.67a.612.612 0 00-.05-.12c-.01-.03-.02-.06-.04-.1-.05-.14-.1-.29-.16-.43-.08-.21-.17-.43-.26-.64-.06-.16-.13-.31-.2-.46-.01-.03-.02-.05-.03-.07-.01-.03-.03-.07-.04-.1a21.99 21.99 0 00-.63-1.33c-.02-.04-.03-.07-.05-.1-.02-.05-.05-.1-.07-.15-.09-.18-.19-.37-.28-.55-.12-.23-.25-.45-.38-.68-.06-.11-.13-.23-.19-.34-.03-.05-.05-.09-.08-.14-.11-.19-.24-.38-.36-.57-.18-.29-.35-.58-.54-.86-.03-.05-.06-.09-.09-.14-.26-.39-.52-.76-.79-1.13-.01-.02-.02-.03-.03-.05l-.01-.01c-.19-.26-.39-.51-.58-.76-.16-.2-.32-.4-.48-.59-.01-.01-.01-.02-.02-.02 0 0 0-.01-.01-.01l-.51-.6c-.17-.19-.34-.38-.52-.57l-.09-.09c-.03-.03-.05-.06-.08-.09-.12-.13-.25-.26-.37-.39-.18-.19-.37-.37-.56-.55-.06-.05-.11-.1-.17-.16-.05-.04-.09-.09-.14-.13-.09-.08-.18-.17-.27-.25a31 31 0 00-.59-.51c-.08-.07-.17-.14-.25-.21-.05-.04-.09-.08-.14-.12l-.19-.16c-.19-.15-.39-.3-.58-.44l-.42-.3c-.03-.02-.05-.04-.08-.06-.02-.02-.05-.03-.07-.05a18 18 0 00-.56-.37c-.18-.12-.37-.23-.56-.34a.913.913 0 01-.13-.08c-.14-.08-.28-.16-.42-.23-.18-.1-.36-.19-.54-.28-.11-.06-.23-.11-.34-.16-.03-.01-.06-.03-.09-.04a.467.467 0 01-.1-.05 18.358 18.358 0 00-1.06-.42l-.09-.03-.09-.03c-.12-.04-.24-.08-.35-.12-.18-.06-.36-.11-.54-.15l-.26-.06c-.04-.01-.08-.02-.11-.03-.06-.01-.11-.03-.17-.04-.2-.04-.39-.07-.58-.1l-.35-.03c-.04 0-.08-.01-.12-.01-.04 0-.08-.01-.12-.01-.21-.01-.42-.02-.62-.02-.09 0-.18.01-.27.01-.07 0-.14 0-.2.01-.07 0-.14 0-.21.01-.26.02-.51.06-.76.11h-.02c-.05.01-.1.03-.15.04a6.568 6.568 0 00-.84.24c-.04.01-.08.03-.12.05-.3.12-.59.25-.87.41l-1.82 1.06c.28-.16.57-.3.87-.41.04-.01.07-.03.11-.04.28-.1.57-.19.87-.25l.12-.03c.32-.06.65-.1.99-.13.07 0 .13 0 .2-.01.33-.01.67-.01 1.01.02.04 0 .08.01.11.01.36.04.73.09 1.11.17.03.01.07.01.1.02.38.09.77.19 1.17.33.03.01.05.02.08.02.41.14.83.31 1.26.5.03.01.05.03.08.04.43.2.87.42 1.31.68.45.26.89.54 1.33.85.02.01.04.02.05.04.41.29.82.59 1.22.92.04.03.08.07.12.1.38.31.76.64 1.13.99.04.04.08.08.13.11.38.36.75.72 1.11 1.11.02.02.05.05.07.08.38.41.76.83 1.12 1.27l.01.01c.37.45.73.9 1.07 1.38l.06.09c.3.4.58.82.86 1.24.18.28.35.56.53.84.15.24.31.49.45.73.07.11.12.22.19.33.23.41.46.82.67 1.24.02.04.05.09.07.13.25.5.49 1.01.72 1.53.01.03.02.05.03.08.22.51.43 1.02.62 1.53.01.03.02.06.04.09.19.52.37 1.05.53 1.58l.03.09c.15.51.29 1.02.41 1.52l.03.14c.12.52.22 1.04.31 1.56v.02c.08.52.14 1.04.19 1.56 0 .04 0 .08.01.12a16.774 16.774 0 01-.01 2.98c0 .04-.01.08-.01.12-.04.43-.1.84-.18 1.24-.01.05-.02.1-.03.16-.08.38-.17.75-.28 1.1-.02.07-.04.13-.07.2-.11.33-.23.65-.37.94-.01.03-.03.07-.04.1-.16.34-.34.66-.53.96-.02.04-.05.07-.08.11-.16.24-.33.47-.52.68-.06.08-.13.15-.2.22-.16.17-.33.33-.5.48-.07.06-.14.13-.21.19-.24.19-.5.38-.76.53l1.82-1.06c.27-.15.52-.34.76-.53.07-.06.14-.13.22-.19.17-.15.33-.31.49-.47.07-.08.14-.15.21-.23.18-.21.34-.43.5-.67l.09-.12c0-.01.01-.02.02-.02.18-.28.35-.58.5-.9.01-.01.01-.02.01-.04.02-.03.03-.07.04-.1.09-.2.18-.41.26-.62.04-.11.07-.22.11-.33.02-.06.04-.13.06-.19.02-.06.04-.11.06-.17.06-.22.12-.44.18-.67.02-.08.03-.17.05-.25.01-.05.02-.1.03-.16.02-.08.03-.16.05-.24.04-.21.07-.42.1-.63l-.02.01.02-.01c.01-.12.02-.24.04-.36 0-.04.01-.08.01-.12.01-.05.01-.1.02-.15.02-.2.03-.41.04-.62.01-.21.01-.42.01-.64v-.04c-.02-.21-.03-.41-.03-.61z"/><path class="st75" d="M199.8 137.93l-.03-.64c-.01-.1-.01-.2-.02-.29 0-.04-.01-.08-.01-.12 0-.07-.01-.15-.02-.23-.02-.22-.04-.43-.07-.65l-.09-.66v-.04c-.03-.21-.07-.42-.11-.63-.04-.23-.09-.46-.14-.69-.02-.08-.04-.16-.05-.24-.01-.05-.02-.1-.03-.14-.02-.1-.05-.2-.07-.31l-.18-.7-.15-.51-.03-.1-.03-.09c-.07-.23-.14-.46-.22-.68-.08-.22-.15-.45-.24-.67a.612.612 0 00-.05-.12c-.01-.03-.02-.06-.04-.1-.05-.14-.11-.29-.16-.43-.08-.21-.17-.43-.26-.64-.06-.16-.13-.31-.2-.46-.01-.03-.02-.05-.03-.07-.01-.03-.03-.07-.04-.1a21.99 21.99 0 00-.63-1.33c-.02-.04-.03-.07-.05-.1-.02-.05-.05-.1-.07-.15-.09-.18-.19-.37-.28-.55-.12-.23-.25-.45-.38-.68-.06-.11-.13-.23-.19-.34-.03-.05-.05-.09-.08-.14-.11-.19-.24-.38-.36-.57-.18-.29-.35-.58-.54-.86-.03-.05-.06-.09-.09-.14-.26-.39-.52-.76-.79-1.13-.01-.02-.02-.03-.03-.05l-.01-.01c-.19-.26-.39-.51-.58-.76-.16-.2-.32-.4-.48-.59-.01-.01-.01-.02-.02-.02 0 0 0-.01-.01-.01l-.51-.6c-.17-.19-.34-.38-.52-.57l-.09-.09c-.03-.03-.05-.06-.08-.08-.12-.13-.25-.26-.37-.39-.18-.19-.37-.37-.56-.55-.05-.05-.11-.1-.17-.16-.05-.04-.09-.09-.14-.13-.09-.08-.18-.17-.27-.25a31 31 0 00-.59-.51c-.08-.07-.17-.14-.25-.21-.05-.04-.09-.08-.14-.12l-.19-.16c-.19-.15-.38-.3-.58-.44l-.42-.3c-.03-.02-.05-.04-.08-.06-.02-.02-.05-.03-.07-.05a18 18 0 00-.56-.37c-.18-.12-.37-.23-.56-.34a.913.913 0 01-.13-.08c-.14-.08-.28-.16-.42-.23-.18-.1-.36-.19-.54-.28-.11-.06-.23-.11-.34-.16-.03-.01-.06-.03-.09-.04a.467.467 0 01-.1-.05 18.358 18.358 0 00-1.06-.42l-.09-.03-.09-.03c-.12-.04-.24-.08-.35-.12-.18-.06-.36-.11-.54-.15l-.26-.06c-.04-.01-.08-.02-.11-.03-.06-.01-.11-.03-.17-.04-.2-.04-.39-.07-.58-.1l-.35-.03c-.04 0-.08-.01-.12-.01-.04 0-.08-.01-.12-.01-.21-.01-.42-.02-.62-.02-.09 0-.18.01-.27.01-.07 0-.14 0-.2.01-.07 0-.15 0-.21.01-.26.02-.51.06-.76.11h-.02c-.05.01-.1.03-.15.04-.26.06-.51.12-.76.21-.03.01-.05.02-.08.03-.04.01-.08.03-.12.05-.3.12-.59.25-.87.41l-1.82 1.06c.01 0 .02-.01.03-.01-2.38 1.37-3.86 4.31-3.88 8.48-.02 8.38 5.86 18.58 13.16 22.8 3.9 2.25 7.39 2.31 9.82.62-.14.1-.28.21-.43.3l1.83-1.06c.27-.15.52-.34.76-.53.07-.06.14-.13.22-.19.17-.15.33-.31.49-.47.07-.08.14-.15.21-.23.18-.21.34-.43.5-.67l.09-.12c0-.01.01-.02.02-.02.18-.28.35-.58.5-.9.01-.01.01-.02.01-.04.01-.03.03-.07.04-.1.09-.2.18-.41.26-.62.04-.11.07-.22.11-.33.02-.06.04-.13.06-.19.02-.06.04-.11.06-.17.06-.22.12-.44.18-.67.02-.08.03-.17.05-.25.01-.05.02-.1.03-.16.02-.08.03-.16.05-.24.04-.21.07-.42.1-.63.01-.12.02-.24.04-.36 0-.04.01-.08.01-.12.01-.05.01-.1.02-.15.02-.2.03-.41.04-.62.01-.21.01-.42.01-.64v-.04c-.03-.2-.04-.4-.04-.6z"/><path class="st1" d="M138.03 219.45l.2-.97 48.37-27.52v-2.37l-51.36 29.69.76 1.37.53.74z"/><path class="st75" d="M141.93 217.92l-19.35 11.19a9.964 9.964 0 01-9.99 0S18.62 174.79 2.58 165.5a4.623 4.623 0 01-2.31-4.02l.2-3.32c-.35-1.51.23-3.21 1.76-4.1l86.21-49.83.1.06.16-99.52c-.01-2.66 2.85-3.62 5.89-4.32 2.17-.5 4.67.03 6.6 1.13l107.36 61.5a9.978 9.978 0 015.02 8.64l-.15 103.16c0 1.08-.58 2.07-1.51 2.61l-31.41 18.16-38.57 22.27z"/><linearGradient id="SVGID_17_" gradientUnits="userSpaceOnUse" x1="88.373" y1="309.461" x2="115.638" y2="309.461" gradientTransform="rotate(4.232 1501.299 677.688)"><stop offset="0" stop-color="#231f20"/><stop offset="1" stop-color="#231f20" stop-opacity="0"/></linearGradient><path opacity=".3" fill-rule="evenodd" clip-rule="evenodd" fill="url(#SVGID_17_)" d="M119.75 201.52l21.67 13.61 4.92-3.55-14.61-10.31-5.56-1.87-4.98.87z"/><path class="st77" d="M161.54 116.24s2.72-4.82 1.39-7.56c-1.32-2.75-4.9-3.77-6.04-2.41-1.14 1.37-.42 3.18.07 3.96.49.78 1.21 4.09 1.21 4.09l3.85 2.46"/><path class="st75" d="M161.54 116.24s2.72-4.82 1.39-7.56c-1.32-2.75-4.9-3.77-6.04-2.41-1.14 1.37-.42 3.18.07 3.96.49.78 1.21 4.09 1.21 4.09l3.85 2.46"/><path class="st78" d="M129.39 203.9s-.74 3.11.75 3.82c2.12 1.01 4.06-1.08 5.6-1.62s4.77-1.87 5.68-3.82c.91-1.95.64-2.62.37-2.98-.4-.53-1.62-.56-3.07.08-1.13.5-5.47 3.03-5.47 3.03l-3.52 1.54m-11.52-5.75s-.74 3.11.75 3.82c2.12 1.01 4.07-1.08 5.6-1.62 1.53-.54 4.77-1.87 5.68-3.82.91-1.95.64-2.62.36-2.98-.4-.53-1.62-.56-3.06.07-1.13.5-5.47 3.03-5.47 3.03l-3.53 1.54"/><path class="st75" d="M129.39 203.9s-.74 3.11.75 3.82c2.12 1.01 4.06-1.08 5.6-1.62s4.77-1.87 5.68-3.82c.91-1.95.64-2.62.37-2.98-.4-.53-1.62-.56-3.07.08-1.13.5-5.47 3.03-5.47 3.03l-3.52 1.54m-11.52-5.75s-.74 3.11.75 3.82c2.12 1.01 4.07-1.08 5.6-1.62 1.53-.54 4.77-1.87 5.68-3.82.91-1.95.64-2.62.36-2.98-.4-.53-1.62-.56-3.06.07-1.13.5-5.47 3.03-5.47 3.03l-3.53 1.54"/><path d="M135.86 155.87l-.87-5.59-11.8-2.91-6.86-1.69s.15 3.55.76 7.22c.69 4.15 1.85 8.69 1.98 13.17.25 8.46-1.19 33.39-1.19 33.47.04 1.29 4.57 2.07 4.93-.1 0 0 2.68-21.62 2.98-27.78.37-7.71.66-11.34.66-11.34s3.94 13.08 3.07 21.29c-.87 8.2-.65 17.3-.65 17.3s.17 5.68.29 5.95c.47 1.16 5.04 1.16 5.4-1l.05-1.23h.01s3.36-31.21 1.24-46.76z" fill="#4c7597"/><path class="st75" d="M135.86 155.87l-.87-5.59-11.8-2.91-6.86-1.69s.15 3.55.76 7.22c.69 4.15 1.85 8.69 1.98 13.17.25 8.46-1.19 33.39-1.19 33.47.04 1.29 4.57 2.07 4.93-.1 0 0 2.68-21.62 2.98-27.78.37-7.71.66-11.34.66-11.34s3.94 13.08 3.07 21.29c-.87 8.2-.65 17.3-.65 17.3s.17 5.68.29 5.95c.47 1.16 5.04 1.16 5.4-1l.05-1.23h.01s3.36-31.21 1.24-46.76z"/><path class="st78" d="M159.55 113.87c-1.46-.36-2.36.24-2.36.24s-3.62 7.09-7.31 10.07c-1.56 1.26-12.8-11.19-12.8-11.19-3.23-4.26-10.65-6.58-10.65-6.58s-2.98-.61-5.57.7c-3.55 1.8-3.01 14.91-3.31 27.01-.21 8.51-3.01 8.29-2.22 10.97 1.28 4.36 15.63 6.74 20.53 4.75.97-.39 2.35-10.69 2.86-20.17 2.94 2.36 6.5 4.21 9.83 4.45 6.32.46 10.2-9.62 13.47-16.67.75-1.59-.87-3.18-2.47-3.58z"/><path d="M161.05 102.52s-2.42 13.71-8.18 17.32l-16.99-9.32s4.93-4.8 8.26-17.83l16.91 9.83z" fill="#a6cf5e"/><path class="st75" d="M161.05 102.52s-2.42 13.71-8.18 17.32l-16.99-9.32s4.93-4.8 8.26-17.83l16.91 9.83z"/><path class="st73" d="M145.3 98.27l11.89 7c.07-.24.14-.49.19-.72l-11.86-6.98c-.08.24-.15.48-.22.7zm-1.06 3.03l11.95 7.21c.08-.24.16-.48.24-.71l-11.93-7.17c-.09.23-.18.45-.26.67zm-1.24 3.01l11.99 7.22c.1-.22.2-.45.29-.67l-11.99-7.22c-.1.24-.19.45-.29.67z"/><path class="st77" d="M157.34 114.03s-1.5-1.45-1.45-3.76c0 0-.44-1.87-.44-1.98 0 0 .13-1.21 1.13-.63 1.12.65.84 2.28 1.49 2.7.65.42 1.25-.14 1.25-.14l-.87 3.54-1.06.25"/><path class="st75" d="M158.44 113.76l-1.06.25m-.04.02s-1.5-1.45-1.45-3.76c0 0-.44-1.87-.44-1.98 0 0 .13-1.21 1.13-.63 1.12.65.84 2.28 1.49 2.7.65.42 1.25-.14 1.25-.14"/><path class="st75" d="M159.55 113.87c-1.46-.36-2.36.24-2.36.24s-3.62 7.09-7.31 10.07c-1.56 1.26-12.8-11.19-12.8-11.19-3.23-4.26-10.65-6.58-10.65-6.58s-2.98-.61-5.57.7c-3.55 1.8-3.01 14.91-3.31 27.01-.21 8.51-3.01 8.29-2.22 10.97 1.28 4.36 15.63 6.74 20.53 4.75.97-.39 2.35-10.69 2.86-20.17 2.94 2.36 6.5 4.21 9.83 4.45 6.32.46 10.2-9.62 13.47-16.67.75-1.59-.87-3.18-2.47-3.58z"/><path class="st77" d="M138.76 90.78l-.08-.17c-2.85-1.16-12.41 6.45-9.55 12.09h-3.47l-.8 4.72c3.05 3.48 7.01 1.38 7.01 1.38l.71-2.99c3.69 1.22 5.78-4.56 5.75-7.29-.04-3.33.43-7.74.43-7.74z"/><path class="st75" d="M138.76 90.78l-.08-.17c-2.85-1.16-12.41 6.45-9.55 12.09h-3.47l-.8 4.72c3.05 3.48 7.01 1.38 7.01 1.38l.71-2.99c3.69 1.22 5.78-4.56 5.75-7.29-.04-3.33.43-7.74.43-7.74z"/><path d="M123.98 103.67s.59 1.61 4.76 1.8c0 0 1.66-.1 2.09-.4.83-.57 1.32-3.09 1.32-3.09s-2.13-2.64-1-3.88c1.25-1.36 1.97.3 2.2 2.14.06.49 1.26.21 1.26.21s.51-1.63.63-3.43c.14-2.07-.06-4.38.77-4.6 0 0 3.97-.92 3.54-3.84 0 0-2.02-.04-4.95-1.47-2.92-1.43-12.84-3.01-12.53 2.34 0 0-.68 1.46-.68 2.75 0 2.18-.01 6.77 2.59 11.47" fill="#5e4d45"/><path class="st75" d="M123.98 103.67s.59 1.61 4.76 1.8c0 0 1.66-.1 2.09-.4.83-.57 1.32-3.09 1.32-3.09s-2.13-2.64-1-3.88c1.25-1.36 1.97.3 2.2 2.14.06.49 1.26.21 1.26.21s.51-1.63.63-3.43c.14-2.07-.06-4.38.77-4.6 0 0 3.97-.92 3.54-3.84 0 0-2.02-.04-4.95-1.47-2.92-1.43-12.84-3.01-12.53 2.34 0 0-.68 1.46-.68 2.75 0 2.18-.01 6.77 2.59 11.47"/><path id="XMLID_2628_" class="st82" d="M188.51 202.94v17.1l-18.91-10.93v-17.1z"/><path id="XMLID_2584_" class="st83" d="M188.51 202.94l18.91-10.93-18.91-10.94-18.91 10.94z"/><path id="XMLID_2243_" class="st84" d="M196.79 198.16l2.34-1.36-18.93-10.95-2.32 1.37z"/><path id="XMLID_2242_" class="st85" d="M188.51 202.94v17.1l18.91-10.93v-17.1z"/><path id="XMLID_1666_" class="st82" d="M196.79 198.16v3.57l2.34-1.36v-3.57z"/><path id="XMLID_1614_" class="st82" d="M196.8 211.69v3.57l2.33-1.36v-3.57z"/><path id="XMLID_1453_" opacity=".3" fill-rule="evenodd" clip-rule="evenodd" fill="#93b563" d="M188.5 199.47h6.01l12.91-7.46-6.29-3.64z"/><path id="XMLID_69_" class="st87" d="M188.51 202.94l18.91-10.93-18.91-10.94-18.91 10.94z"/><path id="XMLID_1465_" class="st82" d="M188.5 187.75v11.72l-12.96-7.49v-11.72z"/><path id="XMLID_1464_" class="st83" d="M188.5 187.75l12.96-7.49-12.96-7.49-12.96 7.49z"/><path id="XMLID_1463_" class="st84" d="M194.18 184.48l1.6-.94-12.98-7.5-1.58.94z"/><path id="XMLID_1462_" class="st85" d="M188.5 187.75v11.72l12.96-7.49v-11.72z"/><path id="XMLID_1461_" class="st88" d="M194.18 184.48v2.45l1.6-.94v-2.45z"/><path id="XMLID_1460_" class="st88" d="M194.18 193.75v2.45l1.6-.93v-2.45z"/><path id="XMLID_70_" class="st87" d="M188.51 202.94v17.1l-18.91-10.93v-17.1z"/><path id="XMLID_68_" class="st87" d="M188.51 202.94v17.1l18.91-10.93v-17.1z"/><path id="XMLID_67_" class="st87" d="M188.5 187.75v11.72l-12.96-7.49v-11.72z"/><path id="XMLID_66_" class="st87" d="M188.5 187.75l12.96-7.49-12.96-7.49-12.96 7.49z"/><path id="XMLID_64_" class="st87" d="M188.5 187.75v11.72l12.96-7.49v-11.72z"/><path id="XMLID_101_" class="st82" d="M172.38 218.39v11.72l-12.96-7.5v-11.72z"/><path id="XMLID_100_" class="st83" d="M172.38 218.39l12.96-7.5-12.96-7.49-12.96 7.49z"/><path id="XMLID_99_" class="st84" d="M178.06 215.11l1.59-.93-12.97-7.51-1.59.95z"/><path id="XMLID_98_" class="st85" d="M172.38 218.39v11.72l12.96-7.5v-11.72z"/><path id="XMLID_97_" class="st88" d="M178.06 215.11v2.45l1.59-.93v-2.45z"/><path id="XMLID_96_" class="st88" d="M178.06 224.38v2.45l1.6-.93v-2.45z"/><path id="XMLID_93_" class="st87" d="M172.38 218.39v11.72l-12.96-7.5v-11.72z"/><path id="XMLID_92_" class="st87" d="M172.38 218.39l12.96-7.5-12.96-7.49-12.96 7.49z"/><path id="XMLID_91_" class="st87" d="M172.38 218.39v11.72l12.96-7.5v-11.72z"/><path class="st13" d="M131.01 47.6l-.01 4.77-4.15-2.4.02-4.76zm-2.82 19.07l.01-3.18 1.39.8-.01 3.18 2.76 1.6v1.58l-2.77-1.6v-1.58zm-4.14-5.58l1.39.8-.01 1.59-1.39-.8z"/><path class="st13" d="M126.83 61.11l-.01 1.58-1.38-.8v-1.58l-1.38-.8v-1.59l4.15 2.39.02-4.77 1.39.8-.01 3.19 1.37.79-.01 4.77-1.38-.8.01-1.58zm4.15-2.38l.01-1.59 2.76 1.6v1.59zm-15.27 10.28l.01-1.58 2.77 1.6-.01 1.58zm4.17-3.95l1.39.8-.01 1.58-1.38-.8-.01 3.18-1.38-.79v-1.59l-2.77-1.6.01-3.18 2.77 1.6.01-1.59 1.38.79zm.05-17.49v1.59l-1.38-.79v-1.6zm2.74 12.72l-1.38-.79v-1.59l1.38.8zm-2.78 1.59l.01-3.18 1.39.8-.01 1.58 1.38.8v1.6zM115.79 42l.01-1.59 2.76 1.59v1.6zm-5.55 4.76l-1.39-.8v1.58l-1.38-.8.01-3.18 2.77 1.6zm-4.15-4l-.02 7.95-1.38-.8.02-7.94zm5.56-6.33l-.01 4.76-4.15-2.39.01-4.77z"/><path class="st13" d="M114.43 34.84l-.03 11.13-9.68-5.59.03-11.13 9.68 5.59zm-1.42 8.73l.02-7.95-6.92-3.99-.02 7.95 6.92 3.99m-1.38 2.39l4.14 2.39v1.6l-4.15-2.4z"/><path class="st13" d="M117.13 60.28l1.38.8v1.59l-2.77-1.6.01-4.77 1.38.8.01-1.59 1.38.8.01-3.18-1.39-.8v3.18l-1.38-.79.01-4.77 1.38.8v-1.6l-1.38-.8.01-3.18 1.38.8v1.6l1.39.8-.01 3.18 1.38.79.01-3.18 1.38.8v-1.6l-1.38-.79.01-4.77-1.38-.8.01-3.18-1.39-.8v1.6l-1.38-.8.01-3.18 4.15 2.39-.01 3.19 1.38.79.01-3.18 1.39.8-.02 4.76-1.39-.8v3.19l1.38.8-.01 6.35 1.38.8v-1.59l1.39.81-.01 3.17-4.15-2.39-.01 3.18-1.39-.8v1.59l-1.38-.8-.01 1.58-1.37-.79z"/><path class="st13" d="M124.11 40.43l9.68 5.59-.03 11.13-9.68-5.59.03-11.13zm8.27 14.33l.02-7.95-6.92-3.99-.02 7.95 6.92 3.99m-.02 7.94l.01-1.58 1.38.79-.01 1.59zm-.03 9.55l.01-1.6 1.38.8-.01 1.59zm-.01 4.76v-1.58l1.38.79v1.59zm-2.77-1.6l.01-1.58 1.38.8v1.59z"/><path class="st13" d="M128.19 66.67v3.18l4.14 2.4v1.58l-5.53-3.19-.01 3.18 1.38.8v1.58l-1.39-.8v-1.58l-1.38-.8.01-1.58-1.38-.8-.01 3.17-1.39-.8.01-3.17-1.38-.8v-1.6l1.38.8v1.59l1.39.8.01-3.17-2.77-1.6v-1.6l4.15 2.4.01-3.18 1.38.79v1.6zm-20.76-5.62l.01-4.77 4.15 2.39-.01 4.78z"/><path class="st13" d="M104.65 62.63l.03-11.13 9.68 5.59-.03 11.13-9.68-5.59zm1.41-8.74l-.02 7.95 6.92 3.99.02-7.95-6.92-3.99m6.93-2.37l.01-1.58 1.39.8-.01 1.58z"/><path class="st13" d="M111.62 49.14l-.01 1.58 1.38.8v1.6l1.39.8-.01 1.58-6.91-3.99v-1.58l1.38.79.01-3.18z"/></svg>